<svg width="16px" height="16px" viewBox="0 0 16 16" version="1.1" xmlns="http://www.w3.org/2000/svg" xmlns:xlink="http://www.w3.org/1999/xlink">
    <defs>
        <path d="M3.5814286,16 L0.26428571,16 L0.26428571,5.3176187 L3.5814286,5.3176187 L3.5814286,16 Z M1.92107143,3.8604433 C0.86035714,3.8604433 0,2.9818523 0,1.92111429 C0,0.86011216 0.86009299,0 1.92107143,0 C2.9820499,0 3.8421429,0.86011216 3.8421429,1.92111429 C3.8421429,2.9818523 2.9814286,3.8604433 1.92107143,3.8604433 Z M15.9964286,16 L12.6864286,16 L12.6864286,10.7998839 C12.6864286,9.5605705 12.6614286,7.9712493 10.9617857,7.9712493 C9.2371429,7.9712493 8.9728571,9.317708 8.9728571,10.7105962 L8.9728571,16 L5.6592857,16 L5.6592857,5.3176187 L8.8407143,5.3176187 L8.8407143,6.7747941 L8.8871429,6.7747941 C9.33,5.9354896 10.4117857,5.0497556 12.0257143,5.0497556 C15.3828571,5.0497556 16,7.2605192 16,10.1320119 L16,16 L15.9964286,16 Z" id="path-1"></path>
    </defs>
    <g id="Symbols" stroke="none" stroke-width="1" fill="none" fill-rule="evenodd">
        <g id="Artboard" transform="translate(-610.000000, -120.000000)">
            <g id="li-s-white" transform="translate(610.000000, 120.000000)">
                <g id="Shape" fill="#000000" fill-rule="nonzero">
                    <path d="M3.5814286,16 L0.26428571,16 L0.26428571,5.3176187 L3.5814286,5.3176187 L3.5814286,16 Z M1.92107143,3.8604433 C0.86035714,3.8604433 0,2.9818523 0,1.92111429 C0,0.86011216 0.86009299,0 1.92107143,0 C2.9820499,0 3.8421429,0.86011216 3.8421429,1.92111429 C3.8421429,2.9818523 2.9814286,3.8604433 1.92107143,3.8604433 Z M15.9964286,16 L12.6864286,16 L12.6864286,10.7998839 C12.6864286,9.5605705 12.6614286,7.9712493 10.9617857,7.9712493 C9.2371429,7.9712493 8.9728571,9.317708 8.9728571,10.7105962 L8.9728571,16 L5.6592857,16 L5.6592857,5.3176187 L8.8407143,5.3176187 L8.8407143,6.7747941 L8.8871429,6.7747941 C9.33,5.9354896 10.4117857,5.0497556 12.0257143,5.0497556 C15.3828571,5.0497556 16,7.2605192 16,10.1320119 L16,16 L15.9964286,16 Z" id="path-1"></path>
                </g>
                <g id="Color-Clipped">
                    <mask id="mask-2" fill="white">
                        <use xlink:href="#path-1"></use>
                    </mask>
                    <g id="path-1"></g>
                    <g id="Color" mask="url(#mask-2)" fill="#FFFFFF" fill-rule="nonzero">
                        <g transform="translate(-8.000000, -8.000000)" id="Rectangle">
                            <rect x="0" y="0" width="32" height="32"></rect>
                        </g>
                    </g>
                </g>
            </g>
        </g>
    </g>
</svg>