<?xml version="1.0"?>
<svg xmlns="http://www.w3.org/2000/svg" width="65.25" height="24">
  <path fill="#00C878" d="M0 23.313V.687C0 .508.07.349.21.209A.657.657 0 0 1 .688 0h3.439c.179 0 .338.069.478.209.14.14.21.299.21.478v18.176c0 .224.111.335.335.335h7.213c.179 0 .338.069.478.209.14.139.209.298.209.477v3.431c0 .179-.067.338-.201.478s-.297.207-.487.207H.688a.657.657 0 0 1-.478-.209.658.658 0 0 1-.21-.478zM11.126.971a.847.847 0 0 1-.083-.352c0-.111.033-.217.1-.318A.577.577 0 0 1 11.661 0h3.777c.323 0 .54.173.652.519l3.276 9.49c.044.111.114.17.209.175.094.006.164-.053.208-.175l3.276-9.49c.112-.346.33-.519.653-.519h3.777c.223 0 .401.101.535.301a.584.584 0 0 1 .083.318.862.862 0 0 1-.083.352l-6.051 15.28v7.062a.66.66 0 0 1-.209.478.651.651 0 0 1-.476.209h-3.426a.653.653 0 0 1-.476-.209.657.657 0 0 1-.209-.478v-7.062L11.126.971zM30.115 23.313V.687c0-.179.068-.338.205-.478A.63.63 0 0 1 30.785 0h3.984c.25 0 .441.064.572.192a.955.955 0 0 1 .261.427l4.589 13.038c.043.111.103.157.179.134.076-.023.115-.095.115-.218V.687c0-.179.068-.338.204-.478S40.981 0 41.155 0h3.349a.63.63 0 0 1 .465.209c.137.14.204.299.204.478v22.627a.663.663 0 0 1-.204.478.634.634 0 0 1-.465.208h-3.953c-.294 0-.507-.064-.637-.192s-.218-.26-.261-.394l-4.557-12.033c-.043-.112-.103-.156-.179-.134-.076.022-.114.089-.114.201v11.866c0 .179-.068.338-.205.478s-.291.208-.465.208h-3.348a.63.63 0 0 1-.465-.209.668.668 0 0 1-.205-.478zM48.266 23.047l4.893-11.415c.064-.156.098-.276.098-.36s-.033-.214-.098-.393L48.836.971c-.108-.257-.104-.482.017-.678A.557.557 0 0 1 49.355 0h3.77c.271 0 .482.173.635.519l2.763 7.096c.043.111.108.167.194.167.087 0 .152-.056.195-.167L59.675.519c.152-.346.363-.519.634-.519h3.771c.217 0 .387.098.512.293s.127.421.008.678l-4.322 9.941c-.065.179-.099.307-.099.385s.033.201.099.368l4.892 11.382a.867.867 0 0 1 .081.352.515.515 0 0 1-.098.317.582.582 0 0 1-.52.284h-3.917c-.358 0-.591-.173-.7-.519l-3.104-8.117c-.043-.112-.108-.168-.195-.168-.086 0-.151.056-.194.168l-3.104 8.117c-.108.346-.342.519-.7.519h-3.916c-.217 0-.391-.101-.521-.302a.602.602 0 0 1-.098-.334.743.743 0 0 1 .082-.317z"/>
</svg>
