<svg xmlns="http://www.w3.org/2000/svg" width="87" height="32" fill="#00C878">
  <path d="M0 31.085V.915C0 .677.093.465.28.279A.877.877 0 0 1 .917 0h4.585c.238 0 .451.093.637.279s.28.398.28.636v24.234c0 .298.149.446.447.446h9.617a.88.88 0 0 1 .638.279.874.874 0 0 1 .279.635v4.575c0 .238-.089.45-.268.636a.866.866 0 0 1-.649.28H.917a.877.877 0 0 1-.637-.279.873.873 0 0 1-.28-.636zM14.834 1.294c-.074-.164-.111-.32-.111-.469s.044-.29.134-.424C15.02.134 15.25 0 15.548 0h5.037c.431 0 .72.23.869.692l4.368 12.653c.06.148.152.227.279.234.126.008.219-.07.278-.234L30.747.692c.148-.462.438-.692.869-.692h5.037c.297 0 .535.134.713.402.074.119.111.26.111.424 0 .149-.037.305-.111.469l-8.068 20.374v9.417c0 .238-.093.45-.278.636a.88.88 0 0 1-.636.278h-4.568a.872.872 0 0 1-.635-.279.874.874 0 0 1-.279-.636v-9.417L14.834 1.294zM40.154 31.085V.915c0-.238.091-.45.272-.636A.844.844 0 0 1 41.047 0h5.312c.334 0 .588.085.763.257.175.171.29.36.349.569l6.119 17.383c.058.148.137.209.238.179s.153-.126.153-.29V.915c0-.238.091-.45.272-.636S54.642 0 54.874 0h4.464c.232 0 .439.093.621.279s.271.398.271.636v30.17c0 .238-.09.45-.271.636a.847.847 0 0 1-.621.279h-5.27c-.393 0-.676-.086-.85-.257s-.29-.346-.348-.524l-6.076-16.044c-.058-.149-.138-.208-.239-.179s-.152.119-.152.268v15.821c0 .238-.091.45-.272.636a.847.847 0 0 1-.62.279h-4.464a.847.847 0 0 1-.621-.279.888.888 0 0 1-.272-.636zM64.354 30.729l6.522-15.219c.087-.208.131-.369.131-.48s-.044-.286-.131-.524l-5.764-13.21c-.145-.342-.138-.644.021-.904.16-.262.385-.392.674-.392h5.027c.361 0 .643.23.846.692l3.684 9.461c.058.149.145.223.26.223s.202-.074.26-.223L79.568.692C79.77.23 80.051 0 80.412 0h5.027c.289 0 .517.13.684.391.166.26.169.562.01.904L80.369 14.55c-.087.238-.131.409-.131.513 0 .104.044.268.131.491l6.522 15.175c.073.163.109.319.109.468a.7.7 0 0 1-.13.424.771.771 0 0 1-.693.379h-5.223c-.478 0-.788-.23-.933-.691l-4.139-10.823c-.058-.149-.145-.224-.26-.224s-.202.074-.26.224l-4.139 10.823c-.143.461-.453.691-.931.691H65.07c-.289 0-.521-.134-.694-.402a.797.797 0 0 1-.13-.445c0-.135.036-.276.108-.424z"/>
</svg>