<svg width="16px" height="13px" viewBox="0 0 16 13" version="1.1" xmlns="http://www.w3.org/2000/svg" xmlns:xlink="http://www.w3.org/1999/xlink">
    <defs>
        <path d="M14.3553686,3.2385752 C14.3655249,3.3807007 14.3655249,3.5228575 14.3655249,3.6649831 C14.3655249,8 11.0660432,12.994957 5.0355509,12.994957 C3.1776687,12.994957 1.45178692,12.4568612 0,11.5228888 C0.26396978,11.5533264 0.51775202,11.5634827 0.79187809,11.5634827 C2.3248528,11.5634827 3.7360458,11.0457306 4.8629565,10.1624772 C3.4213259,10.1320083 2.2131961,9.1878484 1.79694452,7.8883433 C2,7.9187809 2.2030399,7.9390935 2.4162594,7.9390935 C2.7106668,7.9390935 3.0051055,7.8984684 3.2792003,7.8274368 C1.77666319,7.5228419 0.64972129,6.2030555 0.64972129,4.609143 L0.64972129,4.5685491 C1.08625424,4.8122063 1.59391248,4.9644881 2.1319458,4.9847695 C1.24869238,4.3959234 0.67003387,3.390857 0.67003387,2.2537901 C0.67003387,1.6446627 0.83244075,1.0862855 1.11672311,0.5989711 C2.7309482,2.5888226 5.1573639,3.8882964 7.8781558,4.0304532 C7.8274056,3.786796 7.7969367,3.5330138 7.7969367,3.2792003 C7.7969367,1.4720683 9.2588799,0 11.076137,0 C12.020297,0 12.8730815,0.395939 13.4720839,1.0355353 C14.2131805,0.8934097 14.9238395,0.6192837 15.5533108,0.2436572 C15.3096223,1.0050977 14.7918703,1.6446939 14.1116801,2.050758 C14.771589,1.9797265 15.4111852,1.7969445 16,1.5431623 C15.5533733,2.1928836 14.9949648,2.7715421 14.3553686,3.2385752 Z" id="path-1"></path>
    </defs>
    <g id="Symbols" stroke="none" stroke-width="1" fill="none" fill-rule="evenodd">
        <g id="Artboard" transform="translate(-610.000000, -191.000000)">
            <g id="tw-s-white" transform="translate(610.000000, 191.000000)">
                <g id="Icon" fill="#ADB5BD" fill-rule="nonzero">
                    <path d="M14.3553686,3.2385752 C14.3655249,3.3807007 14.3655249,3.5228575 14.3655249,3.6649831 C14.3655249,8 11.0660432,12.994957 5.0355509,12.994957 C3.1776687,12.994957 1.45178692,12.4568612 0,11.5228888 C0.26396978,11.5533264 0.51775202,11.5634827 0.79187809,11.5634827 C2.3248528,11.5634827 3.7360458,11.0457306 4.8629565,10.1624772 C3.4213259,10.1320083 2.2131961,9.1878484 1.79694452,7.8883433 C2,7.9187809 2.2030399,7.9390935 2.4162594,7.9390935 C2.7106668,7.9390935 3.0051055,7.8984684 3.2792003,7.8274368 C1.77666319,7.5228419 0.64972129,6.2030555 0.64972129,4.609143 L0.64972129,4.5685491 C1.08625424,4.8122063 1.59391248,4.9644881 2.1319458,4.9847695 C1.24869238,4.3959234 0.67003387,3.390857 0.67003387,2.2537901 C0.67003387,1.6446627 0.83244075,1.0862855 1.11672311,0.5989711 C2.7309482,2.5888226 5.1573639,3.8882964 7.8781558,4.0304532 C7.8274056,3.786796 7.7969367,3.5330138 7.7969367,3.2792003 C7.7969367,1.4720683 9.2588799,0 11.076137,0 C12.020297,0 12.8730815,0.395939 13.4720839,1.0355353 C14.2131805,0.8934097 14.9238395,0.6192837 15.5533108,0.2436572 C15.3096223,1.0050977 14.7918703,1.6446939 14.1116801,2.050758 C14.771589,1.9797265 15.4111852,1.7969445 16,1.5431623 C15.5533733,2.1928836 14.9949648,2.7715421 14.3553686,3.2385752 Z" id="path-1"></path>
                </g>
                <g id="Color-Clipped">
                    <mask id="mask-2" fill="white">
                        <use xlink:href="#path-1"></use>
                    </mask>
                    <g id="path-1"></g>
                    <g id="Color" mask="url(#mask-2)" fill="#FFFFFF" fill-rule="nonzero">
                        <g transform="translate(-8.000000, -10.000000)" id="Rectangle">
                            <rect x="0" y="0" width="32" height="32"></rect>
                        </g>
                    </g>
                </g>
            </g>
        </g>
    </g>
</svg>