<svg width="241" height="38" viewBox="0 0 241 38" fill="none" xmlns="http://www.w3.org/2000/svg">
<path d="M58.975 19.7711H62.5327C64.6481 19.7711 72.3404 19.676 72.3404 12.7515C72.3404 9.748 70.3212 6.0686 64.4557 6.0686H58.975V19.7711ZM70.8026 37.109L59.0712 20.5007H58.975V37.109H53.7822V1.27419H64.7918C69.7922 1.27419 72.3885 2.48359 74.263 4.27439C76.5232 6.45489 77.5326 9.748 77.5326 12.7515C77.5326 22.2445 69.6479 23.7424 67.3401 23.7424L77.2927 37.109H70.8026Z" fill="#00A160"/>
<path d="M106.233 10.2796C104.744 8.63359 101.762 5.38919 96.5219 5.38919C89.1186 5.38919 83.3499 11.7819 83.3499 19.2885C83.3499 27.182 89.84 32.994 96.5711 32.994C97.5804 32.994 105.418 32.898 108.831 24.083H92.244V19.2885H114.744C114.552 31.299 105.032 37.787 96.3787 37.787C85.9944 37.787 78.1572 29.313 78.1572 19.2885C78.1572 8.97249 86.0906 0.597595 96.3306 0.597595C102.387 0.597595 108.831 3.84209 112.292 10.2796H106.233Z" fill="#00A160"/>
<path d="M116.523 37.109V1.27399H135.7V6.06829H121.712V16.6242H135.7V21.4202H121.712V32.315H135.7V37.109H116.523Z" fill="#00A160"/>
<path d="M162 37.109L144.405 9.40789H144.307V37.109H139.114V1.27399H144.789L162.097 28.538H162.192V1.27399H167.385V37.109H162Z" fill="#00A160"/>
<path d="M175.27 37.109V6.06829H168.442V1.27399H187.289V6.06829H180.462V37.109H175.27Z" fill="#00A160"/>
<path d="M194.727 21.4293V8.18789L211.74 21.362L194.727 21.4293ZM194.72 1.2142H189.101V37.401H194.727V26.483L218.385 26.508L232.45 37.401H240.48L194.72 1.2142Z" fill="#00A160"/>
<path d="M45.7512 21.4293L28.7418 21.362L45.7512 8.18789V21.4293ZM45.7589 1.2142L0 37.401H8.02896L22.0949 26.508L45.7512 26.483V37.401H51.3778V1.2142H45.7589Z" fill="#00A160"/>
</svg>
