<svg width="162" height="36" viewBox="0 0 162 36" fill="none" xmlns="http://www.w3.org/2000/svg">
<path d="M161.341 17.985H43.736V19.739H161.341V17.985Z" fill="#EE4023"/>
<path d="M54.479 11.527C54.479 10.068 53.422 8.991 51.45 8.401C52.896 8.015 53.882 7.01 53.882 5.854C53.882 3.963 51.702 3.244 49.664 3.2L43.778 3.196L43.787 3.31C43.877 4.518 43.939 7.545 43.939 8.657C43.939 9.671 43.928 13.078 43.772 14.553L43.756 14.672L49.091 14.674C51.696 14.675 54.479 13.849 54.479 11.527ZM46.855 13.3C46.775 11.619 46.772 9.335 46.772 8.657C46.772 7.854 46.805 6.069 46.86 4.55C47.107 4.507 47.527 4.472 47.908 4.479C50.135 4.486 50.964 4.943 50.964 6.162C50.964 6.486 50.863 6.769 50.665 7.007C50.24 7.519 49.393 7.781 48.337 7.729H48.285L47.672 9.341H48.293C49.521 9.303 50.588 9.688 51.131 10.362C51.386 10.669 51.512 11.02 51.512 11.399C51.512 12.674 50.398 13.326 48.202 13.326C47.833 13.324 47.236 13.322 46.855 13.3Z" fill="black"/>
<path d="M59.348 14.557C59.191 11.747 59.191 8.92301 59.191 6.19301V6.18501C59.282 6.51301 59.41 6.812 59.832 7.439C59.877 7.509 64.478 14.228 64.714 14.627L64.736 14.671H66.892L66.877 14.552C66.72 13.076 66.708 9.668 66.708 8.656C66.708 7.539 66.775 4.51301 66.859 3.30801L66.868 3.19901H66.775H64.189L64.296 6.08201C64.342 7.52101 64.391 8.99 64.487 10.413C64.309 9.981 64.165 9.741 63.391 8.6C63.367 8.559 60.678 4.40301 59.742 3.22901L59.718 3.20001H56.697L56.706 3.30901C56.792 4.51601 56.857 7.53901 56.857 8.65701C56.857 9.67101 56.846 13.082 56.69 14.553L56.677 14.672H59.356L59.348 14.557Z" fill="black"/>
<path d="M73.041 14.548C72.93 13.497 72.89 11.483 72.876 9.92701C73.008 9.93301 73.461 9.95701 73.461 9.95701L73.911 9.97801C78.122 9.97801 80.165 8.85001 80.165 6.52201C80.165 3.86201 77.298 3.24501 74.896 3.19601L69.882 3.19101L69.888 3.30501C69.975 4.51801 70.039 7.53801 70.039 8.65301C70.039 9.66701 70.026 13.076 69.869 14.548L69.86 14.665H73.052L73.041 14.548ZM72.913 4.65101C73.11 4.61201 73.457 4.58201 73.8 4.57301C75.295 4.55001 76.348 4.85701 76.853 5.47701C77.08 5.76201 77.198 6.11201 77.198 6.52201C77.198 8.18201 75.338 8.53401 73.778 8.53401L73.145 8.51101C73.145 8.51101 72.989 8.49001 72.891 8.47401C72.883 8.09301 72.877 7.59701 72.877 7.02501C72.876 6.29401 72.887 5.44801 72.913 4.65101Z" fill="black"/>
<path d="M89.417 14.548C89.31 13.497 89.269 11.483 89.255 9.92701C89.388 9.93301 89.839 9.95701 89.839 9.95701L90.29 9.97801C94.497 9.97801 96.546 8.85001 96.546 6.52201C96.546 3.86201 93.679 3.24501 91.272 3.19601L86.263 3.19101L86.267 3.30501C86.357 4.51801 86.419 7.53801 86.419 8.65301C86.419 9.66701 86.406 13.076 86.249 14.548L86.237 14.665H89.432L89.417 14.548ZM89.293 4.65101C89.488 4.61201 89.838 4.58201 90.178 4.57301C91.672 4.55001 92.727 4.85701 93.233 5.47701C93.458 5.76201 93.575 6.11201 93.575 6.52201C93.575 8.18201 91.717 8.53401 90.153 8.53401L89.522 8.51101C89.522 8.51101 89.366 8.49001 89.27 8.47401C89.258 8.09301 89.25 7.59301 89.25 7.01701C89.25 6.28401 89.262 5.44801 89.293 4.65101Z" fill="black"/>
<path d="M95.663 14.675H98.401L98.421 14.609C98.659 13.826 98.966 12.937 99.327 11.978C99.427 11.975 101.588 11.943 101.588 11.943L103.454 11.964C103.454 11.964 103.783 11.975 103.863 11.975C104.356 13.211 104.723 14.148 104.884 14.611L104.906 14.675H108.077L102.965 3.20001H102.916H100.82H100.768L100.746 3.26101C100.152 4.89201 96.332 13.238 95.734 14.517L95.663 14.675ZM101.6 6.58001C101.856 7.11401 102.51 8.65701 103.246 10.468C103.137 10.47 103.006 10.475 103.006 10.475L101.6 10.494C101.6 10.494 100.146 10.471 99.918 10.463C100.511 9.00701 101.096 7.69301 101.6 6.58001Z" fill="black"/>
<path d="M112.493 14.551C112.332 13.072 112.323 9.66701 112.323 8.65401C112.323 7.85601 112.357 6.06801 112.413 4.64501C112.676 4.61201 113.034 4.582 113.274 4.578C114.768 4.551 115.823 4.86501 116.327 5.48301C116.556 5.76301 116.673 6.112 116.673 6.523C116.673 7.845 115.427 8.51501 114.269 8.58001C113.887 8.59701 113.593 8.545 113.591 8.545L113.372 8.50701L113.513 8.71201C114.632 10.368 116.331 13.253 117.048 14.627L117.074 14.676H120.495L120.394 14.505C120.276 14.318 118.035 11.031 117.081 9.627L117.02 9.53901C118.762 9.01701 119.618 8.027 119.618 6.523C119.618 3.865 116.747 3.25001 114.343 3.20101L109.331 3.19701L109.342 3.30601C109.426 4.51301 109.494 7.53901 109.494 8.65401C109.494 9.66801 109.481 13.076 109.321 14.549L109.307 14.671H112.504L112.493 14.551Z" fill="black"/>
<path d="M125.131 14.544C124.976 13.066 124.961 9.661 124.961 8.649C124.961 7.536 125.028 4.51 125.112 3.298L125.122 3.186H125.035H121.971L121.983 3.298C122.07 4.512 122.135 7.538 122.135 8.649C122.135 9.661 122.12 13.066 121.962 14.544L121.951 14.661H125.145L125.131 14.544Z" fill="black"/>
<path d="M138.711 11.527C138.711 10.068 137.657 8.991 135.679 8.401C137.13 8.015 138.116 7.01 138.116 5.854C138.116 3.963 135.941 3.244 133.897 3.2L128.012 3.196L128.021 3.31C128.108 4.518 128.17 7.545 128.17 8.657C128.17 9.671 128.157 13.078 128.001 14.553L127.989 14.672L133.323 14.674C135.931 14.675 138.711 13.849 138.711 11.527ZM131.084 13.3C131.008 11.619 131.003 9.335 131.003 8.657C131.003 7.854 131.037 6.067 131.095 4.55C131.336 4.507 131.756 4.472 132.143 4.479C134.37 4.486 135.2 4.943 135.2 6.162C135.2 6.486 135.096 6.769 134.896 7.007C134.478 7.519 133.626 7.781 132.57 7.729H132.514L131.905 9.341H132.527C133.757 9.303 134.815 9.688 135.364 10.362C135.618 10.669 135.745 11.02 135.745 11.399C135.745 12.674 134.631 13.326 132.438 13.326C132.063 13.324 131.463 13.322 131.084 13.3Z" fill="black"/>
<path d="M142.069 14.595C142.306 13.812 142.613 12.927 142.974 11.964C143.072 11.96 145.234 11.93 145.234 11.93L147.104 11.955C147.104 11.955 147.43 11.96 147.514 11.964C148.008 13.2 148.368 14.131 148.529 14.599L148.55 14.661H151.723L146.617 3.186H146.568H144.417L144.394 3.248C143.766 4.983 139.719 13.782 139.383 14.507L139.308 14.661H142.052L142.069 14.595ZM145.247 6.56701C145.502 7.10801 146.153 8.642 146.895 10.451C146.784 10.453 146.657 10.462 146.657 10.462L145.246 10.485C145.246 10.485 143.799 10.453 143.566 10.451C144.158 8.992 144.743 7.68501 145.247 6.56701Z" fill="black"/>
<path d="M156.436 9.72601C157.831 10.287 159.266 10.872 159.266 11.83C159.266 12.125 159.2 12.358 159.041 12.537C158.713 12.932 158.027 13.099 156.947 13.047C155.896 12.996 154.687 12.653 153.355 12.035L152.793 11.779L152.797 12.22V14.282L153.158 14.359L153.379 14.407C154.055 14.567 155.326 14.872 156.611 14.872C159.978 14.872 161.99 13.536 161.99 11.31C161.99 9.24301 159.916 8.41401 158.086 7.68501C156.732 7.14601 155.336 6.58901 155.336 5.70601C155.336 5.44801 155.336 4.68101 157.066 4.68101C158.361 4.68101 159.628 5.20601 160.312 5.49201L160.97 5.76301L160.962 5.328V3.24401L160.312 3.13C159.662 3.001 158.578 2.79401 157.451 2.79401C154.555 2.79401 152.609 4.14801 152.609 6.16701C152.613 8.18301 154.648 8.99801 156.436 9.72601Z" fill="black"/>
<path d="M72.874 27.419C72.874 28.255 72.874 31.055 72.727 32.547H75.982C75.854 31.419 75.816 29.765 75.801 28.585V28.385H79.159V26.839L75.801 26.912C75.836 26.22 75.836 25.132 75.836 24.241C76.035 24.22 76.272 24.22 76.507 24.22C76.527 24.22 79.159 24.241 80.651 24.349V22.75H72.765C72.836 23.856 72.874 26.495 72.874 27.419Z" fill="black"/>
<path d="M87.532 22.493C84.477 22.493 82.188 24.567 82.188 27.656C82.188 30.727 84.477 32.822 87.532 32.822C90.566 32.822 92.857 30.727 92.857 27.656C92.857 24.567 90.566 22.493 87.532 22.493ZM87.532 31.528C86.116 31.528 85.221 30.183 85.221 27.656C85.221 25.132 86.116 23.749 87.532 23.749C88.93 23.749 89.803 25.132 89.803 27.656C89.803 30.184 88.93 31.528 87.532 31.528Z" fill="black"/>
<path d="M104.695 25.786C104.695 23.515 102.133 22.75 99.987 22.75H95.134C95.281 23.749 95.299 25.748 95.299 27.402C95.299 29.365 95.262 31.093 95.098 32.547H98.369C98.206 31.055 98.206 28.255 98.206 27.402C98.206 26.749 98.223 25.311 98.279 24.112C98.496 24.094 99.113 24.094 99.444 24.094C100.168 24.094 101.66 24.477 101.66 25.766C101.66 27.113 100.441 27.784 99.043 27.602C100.205 29.331 101.387 31.365 102.004 32.546H105.514C105.041 32.036 102.659 28.949 102.369 28.436C103.788 27.874 104.695 27.004 104.695 25.786Z" fill="black"/>
<path d="M106.141 24.349C107.575 24.189 108.176 24.132 109.3 24.113C109.3 25.15 109.358 26.785 109.358 27.403C109.358 28.24 109.337 31.055 109.174 32.548H112.462C112.281 31.056 112.281 28.24 112.281 27.403C112.281 26.765 112.301 25.258 112.356 24.113C113.5 24.133 114.044 24.203 115.481 24.349V22.75H106.14L106.141 24.349Z" fill="black"/>
<path d="M117.782 22.75C117.856 23.856 117.911 26.495 117.911 27.419C117.911 28.255 117.892 31.055 117.727 32.547H120.963C120.836 31.2 120.836 28.292 120.836 27.419C120.836 26.479 120.889 23.857 120.963 22.75H117.782Z" fill="black"/>
<path d="M126.462 25.022C126.462 24.696 126.536 24.258 127.646 24.258C129.045 24.258 130.098 24.785 131.17 25.405V22.912C130.407 22.676 129.188 22.492 127.935 22.492C125.355 22.492 123.61 23.494 123.61 25.242C123.61 28.42 129.172 28.237 129.172 30.109C129.172 30.761 128.609 31.109 127.844 31.109C126.901 31.109 125.81 30.799 123.756 29.837V32.215C124.629 32.527 125.9 32.797 127.247 32.797C130.244 32.797 132.045 31.583 132.045 29.654C132.044 26.692 126.462 26.675 126.462 25.022Z" fill="black"/>
<path d="M35.062 0.298004H-0.0670166V35.427H35.062V0.298004Z" fill="url(#paint0_linear)"/>
<path d="M33.978 18.018C33.978 25.369 34.287 32.875 34.287 32.875C34.287 33.725 33.746 34.266 33.049 34.266H2.63996C1.94396 34.266 1.47896 33.648 1.40296 32.875C1.40296 32.875 0.550964 26.451 0.550964 16.701C0.550964 6.88 1.47896 2.31 1.47896 2.31C1.55696 1.538 2.02096 0.919998 2.71696 0.919998H33.126C33.822 0.919998 34.365 1.54 34.365 2.31C34.286 2.31 33.978 10.744 33.978 18.018Z" fill="url(#paint1_linear)"/>
<path d="M27.169 9.73701C25.002 10.975 24.305 11.131 21.985 12.523L22.062 12.29C23.301 10.975 23.841 10.356 24.615 9.19101C22.449 9.34601 19.276 9.58201 17.033 10.042L17.187 9.80701C19.276 8.80201 23.067 7.79501 25.001 7.56201C24.536 6.86501 20.668 4.77501 19.74 4.38901L19.817 4.15601C22.757 4.46801 26.626 5.85901 28.251 6.86601C28.948 6.63401 29.722 6.63401 31.038 6.47901C31.038 6.47901 30.805 7.25301 29.413 8.25701C29.799 9.18201 28.948 14.527 28.174 15.918C28.174 13.762 28.019 10.975 27.169 9.73701Z" fill="url(#paint2_linear)"/>
<path d="M11.307 28.77L11.384 28.539C10.224 28.076 9.063 27.761 8.134 26.836C8.444 25.986 8.753 25.363 9.296 24.588L9.372 24.352C8.367 24.505 7.515 24.892 6.664 25.052C5.967 23.89 5.735 22.267 5.348 20.715V20.869C5.193 22.649 5.116 23.887 5.348 25.279C4.652 25.514 4.033 25.514 3.414 25.743L3.336 25.977C4.264 26.519 4.961 26.983 6.045 27.451C6.586 28.612 7.205 29.462 8.133 30.386L8.211 30.155C8.057 29.459 7.825 28.917 7.901 28.145C9.063 28.54 9.991 28.695 11.307 28.77Z" fill="url(#paint3_linear)"/>
<path d="M14.556 11.131C14.556 11.131 14.093 11.982 13.705 13.065H13.628C16.336 13.453 18.889 14.536 19.508 14.922L19.43 15.155C16.645 14.696 15.174 14.696 14.092 14.843C13.087 14.921 12.854 15.079 12.854 15.079C12.234 16.392 11.925 18.563 11.77 19.336L11.693 19.572C11.151 18.334 10.454 15.859 10.454 15.859C9.06201 16.633 5.81201 19.649 5.81201 19.649C7.59101 16.09 9.44901 14.465 9.44901 14.465C8.82901 13.844 7.20401 13.536 5.96701 13.459L6.04601 13.225C6.81901 12.99 8.36701 12.912 9.37201 12.838C10.61 12.838 11.307 12.838 11.307 12.838C12.312 11.983 13.937 11.209 14.556 11.131Z" fill="url(#paint4_linear)"/>
<path d="M17.96 26.53C17.419 27.302 16.877 27.921 16.258 28.618C15.33 28.851 14.247 28.77 13.394 28.77L13.317 29.005C13.936 29.314 14.555 29.546 15.251 29.701C14.71 30.167 14.013 30.552 13.472 30.939L13.394 31.174C14.477 30.939 15.947 30.475 17.032 29.783C17.573 29.783 18.115 29.783 18.501 29.705L18.579 29.47C18.502 29.236 18.27 29.083 18.193 28.697C19.199 27.923 19.896 27.224 20.747 26.373L20.902 26.139C20.05 26.681 19.045 27.532 18.116 27.998C18.038 27.458 17.96 27.071 17.96 26.53Z" fill="url(#paint5_linear)"/>
<path d="M27.323 9.50601C25.157 10.743 24.46 10.896 22.139 12.29C23.532 10.82 23.996 10.202 24.847 8.88701C22.681 8.96501 19.508 9.27501 17.264 9.73801C19.199 8.65401 23.145 7.49501 25.157 7.26301C24.693 6.64401 20.824 4.63201 19.818 4.16701C22.836 4.39901 26.627 5.55701 28.407 6.64401C29.104 6.40801 29.878 6.40801 31.193 6.25701C30.883 6.87601 30.883 7.26201 29.568 8.11401C29.954 9.04101 29.104 14.381 28.331 15.774C28.33 13.528 28.097 10.744 27.323 9.50601Z" fill="white"/>
<path d="M11.461 28.54C10.223 28.077 9.29498 27.535 8.36598 26.606C8.67498 25.755 8.98598 25.136 9.52698 24.361C8.52098 24.512 7.74798 24.594 6.89698 24.827C6.12298 23.511 5.81398 22.273 5.50398 20.648C5.34898 22.428 5.27198 23.666 5.50398 25.059C4.73098 25.29 4.11098 25.446 3.49298 25.755C4.42198 26.297 5.19498 26.76 6.20098 27.227C6.74298 28.386 7.36098 29.239 8.28998 30.168C8.05798 29.393 7.98098 28.778 8.13598 27.922C9.13998 28.308 10.146 28.464 11.461 28.54Z" fill="white"/>
<path d="M14.711 10.898C14.324 11.441 13.859 12.369 13.782 12.755C16.954 13.221 19.585 14.843 19.585 14.843C16.8 14.38 15.329 14.38 14.246 14.534C13.241 14.611 13.007 14.766 13.007 14.766C12.234 16.391 11.769 19.254 11.769 19.254C11.228 18.016 10.531 15.541 10.531 15.541C9.138 16.313 5.888 19.332 5.888 19.332C7.667 15.772 9.524 14.147 9.524 14.147C8.904 13.527 7.279 13.22 6.042 13.142C6.661 12.906 8.286 12.6 9.524 12.521C10.763 12.521 11.459 12.521 11.459 12.521C12.467 11.75 14.093 10.975 14.711 10.898Z" fill="white"/>
<path d="M18.116 26.297C17.574 27.071 17.033 27.689 16.412 28.385C15.329 28.696 14.478 28.77 13.394 28.77C14.013 29.082 14.633 29.314 15.329 29.469C14.632 30.089 14.091 30.474 13.394 30.939C14.477 30.706 15.947 30.242 17.032 29.548C17.573 29.548 18.115 29.548 18.501 29.471C18.424 29.161 18.346 28.932 18.269 28.465C19.274 27.693 20.049 26.994 20.823 26.144C19.894 26.765 19.121 27.227 18.115 27.693C18.116 27.224 18.116 26.836 18.116 26.297Z" fill="white"/>
<defs>
<linearGradient id="paint0_linear" x1="17.498" y1="-0.565396" x2="17.498" y2="36.4823" gradientUnits="userSpaceOnUse">
<stop stop-color="#00774A"/>
<stop offset="0.6" stop-color="#8CCAAE"/>
<stop offset="1" stop-color="#00975F"/>
</linearGradient>
<linearGradient id="paint1_linear" x1="17.459" y1="-8.417" x2="17.459" y2="33.2129" gradientUnits="userSpaceOnUse">
<stop stop-color="#00975F"/>
<stop offset="0.3" stop-color="#8CCAAE"/>
<stop offset="0.55" stop-color="#00975F"/>
<stop offset="0.8352" stop-color="#00774A"/>
<stop offset="0.8691" stop-color="#007C4E"/>
<stop offset="0.9244" stop-color="#00895A"/>
<stop offset="0.9938" stop-color="#009E6E"/>
<stop offset="1" stop-color="#00A070"/>
</linearGradient>
<linearGradient id="paint2_linear" x1="24.0352" y1="30.9111" x2="24.0352" y2="3.97001" gradientUnits="userSpaceOnUse">
<stop stop-color="#00A97C"/>
<stop offset="1" stop-color="#00975F"/>
</linearGradient>
<linearGradient id="paint3_linear" x1="7.3594" y1="30.9062" x2="7.3594" y2="3.96249" gradientUnits="userSpaceOnUse">
<stop stop-color="#00A97C"/>
<stop offset="1" stop-color="#00975F"/>
</linearGradient>
<linearGradient id="paint4_linear" x1="12.6602" y1="30.9033" x2="12.6602" y2="3.97561" gradientUnits="userSpaceOnUse">
<stop stop-color="#00A97C"/>
<stop offset="1" stop-color="#00975F"/>
</linearGradient>
<linearGradient id="paint5_linear" x1="17.1094" y1="30.9082" x2="17.1094" y2="3.97641" gradientUnits="userSpaceOnUse">
<stop stop-color="#00A97C"/>
<stop offset="1" stop-color="#00975F"/>
</linearGradient>
</defs>
</svg>
