<svg xmlns="http://www.w3.org/2000/svg" width="150" height="40.916" viewBox="0 0 150 40.916"><path d="M51.746 26.272c0 4.18-1.825 8.648-6.947 8.652-5.11 0-6.93-4.47-6.93-8.652 0-4.194 1.82-8.675 6.92-8.675 4.22 0 6.943 3.405 6.943 8.675m-6.93-14.674c-8.137 0-13.393 5.76-13.393 14.67 0 8.9 5.256 14.648 13.393 14.648 8.134 0 13.39-5.75 13.39-14.648 0-8.912-5.256-14.67-13.39-14.67m98.73 14.674c0 4.18-1.825 8.648-6.947 8.652-5.105 0-6.925-4.47-6.925-8.652 0-4.194 1.82-8.675 6.925-8.675 4.22 0 6.946 3.405 6.946 8.675m-6.93-14.674c-8.133 0-13.39 5.76-13.39 14.67 0 8.9 5.256 14.648 13.39 14.648s13.4-5.75 13.4-14.648c0-8.912-5.255-14.67-13.39-14.67M71.787 35.64c-1.854-.123-2.61-.902-2.61-2.694V0H62.69v33.605c0 4.323 2.31 6.72 6.503 6.75h3.09V35.67l-.496-.03zM90.76 23.178c-2.566 1.437-6.597 1.815-9.09 2.036l-.014-.612c0-5.057 2.624-8.322 6.685-8.322 3.33 0 4.25 1.575 4.51 2.513.09.31.13.63.13.945 0 1.4-.8 2.654-2.21 3.44m7.39 11.185l-.54.177c-2.73.902-5.185 1.323-7.73 1.323-4.29 0-7.326-2.408-8.045-6.326 3.345-.33 8.963-.975 12.92-3.174 2.713-1.506 4.267-4.032 4.267-6.933 0-.724-.096-1.452-.293-2.167-.975-3.535-4.66-5.646-9.868-5.646-8.35 0-13.75 5.737-13.75 14.616 0 8.886 5.25 14.628 13.37 14.628 4 0 7.56-.76 10.302-2.22l.376-.19-1.014-4.074zm23.09-22.797c-1.938.03-2.81.15-3.738.358-3 .654-4.954 2.14-6.205 3.59-.14-2.13-1.45-3.34-3.64-3.34h-2.833v28.182h6.487v-17.63c.85-2.528 3.5-5.052 7.54-5.052.625 0 1.39.05 2.34.154l.586.065V11.56l-.535.006zM6.797 6.044h7.362c3.55 0 5.76 1.988 5.76 5.188 0 2.83-.984 4.67-3.18 5.947h-2.77l-.01 5.75h.532c4.39 0 6.905 2.16 6.905 5.94 0 3.88-2.778 6.19-7.427 6.19H6.8V6.04zm15.49 12.894c2.815-2.257 4.243-5.06 4.243-8.336C26.53 4.206 21.87.234 14.35.234H0v40.643h14.223c10.36 0 14.034-6.435 14.034-11.943 0-4.365-2.214-8.04-5.97-9.996" fill="#003767"/></svg>