<svg width="205" height="29" viewBox="0 0 205 29" fill="none" xmlns="http://www.w3.org/2000/svg">
<g clip-path="url(#clip0_401:2)">
<path d="M78.7677 14.4576C78.7677 25.1563 71.5587 28.4836 62.4187 28.4836H53.194V0.457275H62.4212C71.5587 0.457275 78.7677 3.78456 78.7677 14.4576V14.4576ZM59.8079 22.9364H62.5315C67.3862 22.9364 71.787 21.883 71.787 14.4858C71.787 7.11699 67.3862 6.06357 62.5315 6.06357H59.8079V22.9364ZM103.58 0.457275V6.2614H88.731V11.1843H102.754V17.0192H88.731V22.6512H103.58V28.4836H82.1478V0.457275H103.58ZM127.251 9.25211C126.684 7.3174 124.696 5.46748 121.121 5.46748C117.062 5.46748 113.91 8.48388 113.91 14.4011C113.91 20.3208 116.833 23.5633 121.234 23.5633C124.271 23.5633 127.451 22.3968 127.451 18.8409V18.3013H120.696V12.8929H134.036V28.5119H128.982L128.784 25.4107C126.968 27.8592 124.245 28.9975 120.211 28.9975C111.95 28.9975 106.898 23.3629 106.898 14.4011C106.926 5.52144 112.717 0.00250244 121.203 0.00250244C127.42 0.00250244 132.416 3.13452 133.721 9.25211H127.251ZM138.832 28.4836V0.457275H145.418V28.4836H138.832ZM156.802 17.9288V28.4836H150.216V0.457275H160.974C168.212 0.457275 173.661 2.16588 173.661 9.10823C173.661 13.2346 171.392 15.5958 168.183 16.8471L175.082 28.4836H167.332L161.256 17.9288H156.802ZM156.802 12.379H161.146C164.27 12.379 166.652 11.842 166.652 9.22128C166.652 6.63139 164.27 6.06357 161.146 6.06357H156.802V12.379ZM175.99 14.4858C175.99 5.75011 181.893 0.00250244 190.495 0.00250244C199.068 0.00250244 205 5.75011 205 14.4858C205 23.219 199.066 28.9666 190.495 28.9666C181.893 28.9975 175.99 23.2216 175.99 14.4858ZM198.017 14.4858C198.017 8.53784 194.583 5.43665 190.495 5.43665C186.407 5.43665 182.971 8.53784 182.971 14.4858C182.971 20.4313 186.404 23.5325 190.492 23.5325C194.58 23.5325 198.017 20.4596 198.017 14.4858V14.4858Z" fill="#111111"/>
<path d="M0 0.457275H46.6364V11.7546H0V0.457275ZM0 17.1888H46.6364V28.4836H0V17.1888Z" fill="#009DE0"/>
</g>
<defs>
<clipPath id="clip0_401:2">
<rect width="205" height="29" fill="white"/>
</clipPath>
</defs>
</svg>
