<svg width="114" height="42" viewBox="0 0 114 42" fill="none" xmlns="http://www.w3.org/2000/svg">
<path d="M9.91304 3.70587V38.2941H29.5299V32.5753H16.9915V3.70587H9.91304ZM42.9491 3.70587L38.0359 17.0742H37.9363L33.3025 3.70587H25.3544L34.4479 24.6795V38.2941H41.5327V24.6795L50.6178 3.70587H42.9491ZM69.5384 3.70587V27.3933H69.4387L60.8891 3.70587H52.7277V38.2941H59.2165V14.0727H59.3162L67.9676 38.2941H76.03V3.70587H69.5384ZM95.7809 3.70587L91.3226 14.8938L86.8025 3.70587H78.9723L87.0313 20.8056L78.2831 38.2941H86.0473L91.0615 26.5722L96.1234 38.2941H104.087L95.338 20.8056L103.497 3.70587H95.7802H95.7809Z" fill="#00A651"/>
</svg>
